{"title":"Open Range   (Western Drama 2003)   Robert Duvall, Kevin Costner","uid":9329875,"size":630916999,"categoryP":"video","categoryS":"movies","magnet":"?xt=urn:btih:1c4377a94ce398c0930996be66b509cf8efcfa84&amp;dn=Open+Range+++%28Western+Drama+2003%29+++Robert+Duvall%2C+Kevin+Costner&amp;tr=udp%3A%2F%2Ftracker.openbittorrent.com%3A80&amp;tr=udp%3A%2F%2Fopen.demonii.com%3A1337&amp;tr=udp%3A%2F%2Ftracker.coppersurfer.tk%3A6969&amp;tr=udp%3A%2F%2Fexodus.desync.com%3A6969","seeders":2,"leechers":1,"uploader":"BurtonW","files":8,"time":1386707393,"description":" &lt;a href=&quot;http://www.imdb.com/title/tt0316356/?ref_=fn_al_tt_1&quot; rel=&quot;nofollow&quot; target=&quot;_NEW&quot;&gt;http://www.imdb.com/title/tt0316356/?ref_=fn_al_tt_1&lt;/a&gt;\n\n\nA very good quality film.\n\n\nNo subtitles!\n\n\nStoryline:\n\nBoss Spearman, Charley Waite, Mose Harrison and Button freegraze their cattle across the vast prairies of the West, sharing a friendship forged by a steadfast code of honor and living a life unencumbered by civilization. When their wayward herd forces them near the small town of Harmonville, the cowboys encounter a corrupt sheriff and kingpin rancher who govern the territory through fear, tyranny and violence. Boss and Charley find themselves inextricably drawn towards an inevitable showdown, as they are forced to defend the freedom and values of a lifestyle that is all too quickly vanishing. Amidst the turmoil, life suddenly takes an unexpected turn for the loner Charley when he meets the beautiful and warm spirited Sue Barlow, a woman who embraces both his heart and his soul.\n\n\nTechnical info:\n\n\nGeneral:\n\nComplete name:           : Open Range   (Western Drama 2003)   Robert Duvall, Kevin Costner &amp; Annette Bening.mp4\n\nFormat                         : MPEG-4\nFormat profile                 : Base Media / Version 2\nCodec ID                       : mp42\nFile size                      : 597 MiB\nDuration                       : 2h 12mn\nOverall bit rate mode          : Variable\nOverall bit rate               : 628 Kbps\nEncoded date                   : UTC 2013-12-02 17:04:03\nTagged date                    : UTC 2013-12-02 22:30:01\n\n\nVideo:\n\nID                             : 1\nFormat                         : AVC\nFormat/Info                    : Advanced Video Codec\nFormat profile                 : &lt;a class=&quot;__cf_email__&quot; href=&quot;/cdn-cgi/l/email-protection&quot; data-cfemail=&quot;bcf1ddd5d2fcf088928c&quot;&gt;[email&amp;#160;protected]&lt;/a&gt;&lt;script data-cfhash='f9e31' type=&quot;text/javascript&quot;&gt;\n/* &lt;![CDATA[ */!function(){try{var t=&quot;currentScript&quot;in document?document.currentScript:function(){for(var t=document.getElementsByTagName(&quot;script&quot;),e=t.length;e--;)if(t[e].getAttribute(&quot;data-cfhash&quot;))return t[e]}();if(t&amp;&amp;t.previousSibling){var e,r,n,i,c=t.previousSibling,a=c.getAttribute(&quot;data-cfemail&quot;);if(a){for(e=&quot;&quot;,r=parseInt(a.substr(0,2),16),n=2;a.length-n;n+=2)i=parseInt(a.substr(n,2),16)^r,e+=String.fromCharCode(i);e=document.createTextNode(e),c.parentNode.replaceChild(e,c)}t.parentNode.removeChild(t);}}catch(u){}}()/* ]]&gt; */&lt;/script&gt;\nFormat settings, CABAC         : Yes\nFormat settings, ReFrames      : 16 frames\nCodec ID                       : avc1\nCodec ID/Info                  : Advanced Video Coding\nDuration                       : 2h 12mn\nBit rate mode                  : Variable\nBit rate                       : 464 Kbps\nWidth                          : 720 pixels\nHeight                         : 304 pixels\nDisplay aspect ratio           : 2.35:1\nFrame rate mode                : Variable\nFrame rate                     : 25.000 fps\nMinimum frame rate             : 8.333 fps\nMaximum frame rate             : 25.000 fps\nColor space                    : YUV\nChroma subsampling             : 4:2:0\nBit depth                      : 8 bits\nScan type                      : Progressive\nBits/(Pixel*Frame)             : 0.085\nStream size                    : 441 MiB (74%)\nWriting library                : x264 core 130 r2273 b3065e6\nEncoding settings              : Deleted\nEncoded date                   : UTC 2013-12-02 17:04:03\nTagged date                    : UTC 2013-12-02 22:30:01\nColor primaries                : BT.601 PAL\nTransfer characteristics       : BT.709\nMatrix coefficients            : BT.601\n\nAudio:\n\nID                             : 2\nFormat                         : AAC\nFormat/Info                    : Advanced Audio Codec\nFormat profile                 : LC\nCodec ID                       : 40\nDuration                       : 2h 12mn\nBit rate mode                  : Variable\nBit rate                       : 160 Kbps\nMaximum bit rate               : 271 Kbps\nChannel(s)                     : 2 channels\nChannel positions              : Front: L R\nSampling rate                  : 48.0 KHz\nCompression mode               : Lossy\nDelay relative to video        : 160ms\nStream size                    : 152 MiB (25%)\nLanguage                       : English\nEncoded date                   : UTC 2013-12-02 17:04:03\nTagged date                    : UTC 2013-12-02 22:30:01","torrent":{"xt":"urn:btih:1c4377a94ce398c0930996be66b509cf8efcfa84","amp;dn":"Open+Range+++%28Western+Drama+2003%29+++Robert+Duvall%2C+Kevin+Costner","amp;tr":["udp%3A%2F%2Ftracker.openbittorrent.com%3A80","udp%3A%2F%2Fopen.demonii.com%3A1337","udp%3A%2F%2Ftracker.coppersurfer.tk%3A6969","udp%3A%2F%2Fexodus.desync.com%3A6969"],"infoHash":"1c4377a94ce398c0930996be66b509cf8efcfa84","infoHashBuffer":{"type":"Buffer","data":[28,67,119,169,76,227,152,192,147,9,150,190,102,181,9,207,142,252,250,132]},"announce":[],"urlList":[]}}